<?xml version="1.0" encoding="utf-8"?>
<!-- Generator: Adobe Illustrator 16.0.0, SVG Export Plug-In . SVG Version: 6.00 Build 0)  -->
<!DOCTYPE svg PUBLIC "-//W3C//DTD SVG 1.1//EN" "http://www.w3.org/Graphics/SVG/1.1/DTD/svg11.dtd">
<svg version="1.1" id="OBJECTS" xmlns="http://www.w3.org/2000/svg" xmlns:xlink="http://www.w3.org/1999/xlink" x="0px" y="0px"
	 width="146.211px" height="146.885px" viewBox="0 0 146.211 146.885" enable-background="new 0 0 146.211 146.885"
	 xml:space="preserve">
<g>
	<g>
		<path id="XMLID_2_" fill="#AFAFAF" d="M146.211,75.071c0-39.656-32.147-71.804-71.81-71.804c-39.66,0-71.809,32.148-71.809,71.804
			c0,39.657,32.149,71.814,71.809,71.814C114.063,146.885,146.211,114.728,146.211,75.071z"/>
	</g>
	<g>
		<path id="XMLID_21_" fill="#395196" d="M146.211,75.071c0-39.656-32.147-71.804-71.81-71.804
			c-39.66,0-71.809,32.148-71.809,71.804c0,39.657,32.149,71.814,71.809,71.814C114.063,146.885,146.211,114.728,146.211,75.071z"/>
		<path id="XMLID_19_" fill="#FFFFFF" d="M80.729,58.066v-6.802c0-3.313,2.211-4.087,3.759-4.087c1.553,0,9.546,0,9.546,0V32.611
			L80.89,32.553c-14.589,0-17.902,10.87-17.902,17.829v7.685h-8.434v17.015h8.507c0,19.279,0,42.528,0,42.528h17.01
			c0,0,0-23.485,0-42.528h12.625l1.553-17.015H80.729z"/>
	</g>
</g>
</svg>
