<?xml version="1.0" encoding="utf-8"?>
<!-- Generator: Adobe Illustrator 16.0.0, SVG Export Plug-In . SVG Version: 6.00 Build 0)  -->
<!DOCTYPE svg PUBLIC "-//W3C//DTD SVG 1.1//EN" "http://www.w3.org/Graphics/SVG/1.1/DTD/svg11.dtd">
<svg version="1.1" id="OBJECTS" xmlns="http://www.w3.org/2000/svg" xmlns:xlink="http://www.w3.org/1999/xlink" x="0px" y="0px"
	 width="146.211px" height="146.885px" viewBox="0 0 146.211 146.885" enable-background="new 0 0 146.211 146.885"
	 xml:space="preserve">
<g display="none">
	<g display="inline">
		<path id="XMLID_2_" fill="#AFAFAF" d="M146.211,75.071c0-39.656-32.147-71.804-71.81-71.804c-39.66,0-71.809,32.148-71.809,71.804
			c0,39.657,32.149,71.814,71.809,71.814C114.063,146.885,146.211,114.728,146.211,75.071z"/>
	</g>
	<g display="inline">
		<path id="XMLID_21_" fill="#395196" d="M146.211,75.071c0-39.656-32.147-71.804-71.81-71.804
			c-39.66,0-71.809,32.148-71.809,71.804c0,39.657,32.149,71.814,71.809,71.814C114.063,146.885,146.211,114.728,146.211,75.071z"/>
		<path id="XMLID_19_" fill="#FFFFFF" d="M80.729,58.066v-6.802c0-3.313,2.211-4.087,3.759-4.087c1.553,0,9.546,0,9.546,0V32.611
			L80.89,32.553c-14.589,0-17.902,10.87-17.902,17.829v7.685h-8.434v17.015h8.507c0,19.279,0,42.528,0,42.528h17.01
			c0,0,0-23.485,0-42.528h12.625l1.553-17.015H80.729z"/>
	</g>
</g>
<g>
	<g>
		<path fill="#AFAFAF" d="M73.105,1.537C33.401,1.537,1.208,33.73,1.208,73.45c0,39.705,32.193,71.897,71.897,71.897
			c39.706,0,71.898-32.192,71.898-71.897C145.003,33.73,112.811,1.537,73.105,1.537z"/>
	</g>
	<g>
		
			<linearGradient id="SVGID_1_" gradientUnits="userSpaceOnUse" x1="68.7583" y1="365.8594" x2="163.1027" y2="474.3901" gradientTransform="matrix(-1 0 0 -1 189.0371 493.5684)">
			<stop  offset="0" style="stop-color:#5D3FD2"/>
			<stop  offset="0.4244" style="stop-color:#B829A9"/>
			<stop  offset="0.5009" style="stop-color:#BE289D"/>
			<stop  offset="0.6383" style="stop-color:#D0257E"/>
			<stop  offset="0.7849" style="stop-color:#E62256"/>
			<stop  offset="0.8147" style="stop-color:#E83156"/>
			<stop  offset="0.8718" style="stop-color:#EE5755"/>
			<stop  offset="0.9495" style="stop-color:#F89554"/>
			<stop  offset="1" style="stop-color:#FFC153"/>
		</linearGradient>
		<path fill="url(#SVGID_1_)" d="M73.105,1.537C33.401,1.537,1.208,33.73,1.208,73.45c0,39.705,32.193,71.897,71.897,71.897
			c39.706,0,71.898-32.192,71.898-71.897C145.003,33.73,112.811,1.537,73.105,1.537z"/>
		<g>
			<path fill="none" stroke="#FFFFFF" stroke-miterlimit="10" d="M52.528,108.321L52.528,108.321L52.528,108.321L52.528,108.321z
				 M93.683,35.442L93.683,35.442L93.683,35.442L93.683,35.442z"/>
			<g>
				<path fill="#FFFFFF" d="M73.105,99.116c14.159,0,25.677-11.514,25.677-25.666c0-14.161-11.519-25.683-25.677-25.683
					c-14.158,0-25.676,11.521-25.676,25.683C47.429,87.603,58.947,99.116,73.105,99.116z M53.657,73.45
					c0-10.732,8.724-19.463,19.448-19.463s19.449,8.73,19.449,19.463c0,10.724-8.725,19.449-19.449,19.449
					S53.657,84.174,53.657,73.45z"/>
			</g>
			<path fill="#FFFFFF" d="M98.713,116.092H47.498c-9.612,0-17.432-7.82-17.432-17.432V48.227c0-9.612,7.82-17.432,17.432-17.432
				h51.215c9.612,0,17.432,7.819,17.432,17.432V98.66C116.145,108.271,108.325,116.092,98.713,116.092z M47.498,37.155
				c-6.104,0-11.072,4.967-11.072,11.071V98.66c0,6.104,4.967,11.071,11.072,11.071h51.215c6.104,0,11.071-4.967,11.071-11.071
				V48.227c0-6.104-4.967-11.071-11.071-11.071H47.498z"/>
		</g>
		<path fill="#FFFFFF" d="M99.13,44.84c-2.245,0-4.054,1.828-4.054,4.058c0,2.244,1.809,4.049,4.054,4.049
			c2.229,0,4.057-1.805,4.057-4.049C103.188,46.668,101.359,44.84,99.13,44.84z"/>
	</g>
</g>
</svg>
